<mxfile modified="2023-01-16T10:49:20.780Z" host="app.diagrams.net" agent="5.0 (Windows)" etag="BUyL_CRk8Uhh-U1f9g7z" version="20.8.5" type="github">
  <diagram id="Ht1M8jgEwFfnCIfOTk4-" name="Page-1">
    <mxGraphModel dx="1687" dy="934" grid="1" gridSize="10" guides="1" tooltips="1" connect="1" arrows="1" fold="1" page="1" pageScale="1" pageWidth="1169" pageHeight="827" math="0" shadow="0">
      <root>
        <mxCell id="0" />
        <mxCell id="1" parent="0" />
        <object label="" id="4QRxjfR1u28q5DTtSrSD-1">
          <mxCell style="aspect=fixed;html=1;points=[];align=center;image;fontSize=12;image=img/lib/azure2/networking/DNS_Zones.svg;" vertex="1" parent="1">
            <mxGeometry x="28" y="18" width="64" height="64" as="geometry" />
          </mxCell>
        </object>
        <mxCell id="4QRxjfR1u28q5DTtSrSD-2" value="&lt;h3&gt;DNS Zones&lt;/h3&gt;" style="text;html=1;strokeColor=none;fillColor=none;align=center;verticalAlign=middle;whiteSpace=wrap;rounded=0;" vertex="1" parent="1">
          <mxGeometry x="20" y="88" width="80" height="30" as="geometry" />
        </mxCell>
        <mxCell id="4QRxjfR1u28q5DTtSrSD-5" value="" style="sketch=0;outlineConnect=0;fillColor=#d5e8d4;strokeColor=#82b366;dashed=0;verticalLabelPosition=bottom;verticalAlign=top;align=center;html=1;fontSize=12;fontStyle=0;aspect=fixed;pointerEvents=1;shape=mxgraph.aws4.users;gradientColor=#97d077;" vertex="1" parent="1">
          <mxGeometry x="28" y="179" width="66" height="66" as="geometry" />
        </mxCell>
        <mxCell id="4QRxjfR1u28q5DTtSrSD-8" value="" style="rounded=1;whiteSpace=wrap;html=1;dashed=1;fillColor=#18141d;strokeColor=#f53e10;strokeWidth=3;" vertex="1" parent="1">
          <mxGeometry x="190" y="68.12" width="300" height="287.75" as="geometry" />
        </mxCell>
        <mxCell id="4QRxjfR1u28q5DTtSrSD-9" value="" style="whiteSpace=wrap;html=1;aspect=fixed;strokeColor=#fc7a2c;strokeWidth=3;perimeterSpacing=0;fontSize=7;" vertex="1" parent="1">
          <mxGeometry x="540" y="82" width="297" height="297" as="geometry" />
        </mxCell>
        <mxCell id="4QRxjfR1u28q5DTtSrSD-24" value="" style="sketch=0;points=[[0,0,0],[0.25,0,0],[0.5,0,0],[0.75,0,0],[1,0,0],[0,1,0],[0.25,1,0],[0.5,1,0],[0.75,1,0],[1,1,0],[0,0.25,0],[0,0.5,0],[0,0.75,0],[1,0.25,0],[1,0.5,0],[1,0.75,0]];outlineConnect=0;fontColor=#232F3E;gradientColor=#F78E04;gradientDirection=north;fillColor=#D05C17;strokeColor=#ffffff;dashed=0;verticalLabelPosition=bottom;verticalAlign=top;align=center;html=1;fontSize=12;fontStyle=0;aspect=fixed;shape=mxgraph.aws4.resourceIcon;resIcon=mxgraph.aws4.ec2;" vertex="1" parent="1">
          <mxGeometry x="655.75" y="211.25" width="65.5" height="65.5" as="geometry" />
        </mxCell>
        <mxCell id="4QRxjfR1u28q5DTtSrSD-31" value="" style="whiteSpace=wrap;html=1;aspect=fixed;strokeColor=#fc7a2c;strokeWidth=3;perimeterSpacing=0;" vertex="1" parent="1">
          <mxGeometry x="540" y="470" width="300" height="300" as="geometry" />
        </mxCell>
        <mxCell id="4QRxjfR1u28q5DTtSrSD-30" value="" style="sketch=0;outlineConnect=0;fontColor=#232F3E;gradientColor=none;fillColor=#4D27AA;strokeColor=none;dashed=0;verticalLabelPosition=bottom;verticalAlign=top;align=center;html=1;fontSize=12;fontStyle=0;aspect=fixed;pointerEvents=1;shape=mxgraph.aws4.application_load_balancer;" vertex="1" parent="1">
          <mxGeometry x="297.5" y="110" width="85" height="85" as="geometry" />
        </mxCell>
        <mxCell id="4QRxjfR1u28q5DTtSrSD-26" value="" style="sketch=0;points=[[0,0,0],[0.25,0,0],[0.5,0,0],[0.75,0,0],[1,0,0],[0,1,0],[0.25,1,0],[0.5,1,0],[0.75,1,0],[1,1,0],[0,0.25,0],[0,0.5,0],[0,0.75,0],[1,0.25,0],[1,0.5,0],[1,0.75,0]];outlineConnect=0;fontColor=#232F3E;gradientColor=#F78E04;gradientDirection=north;fillColor=#D05C17;strokeColor=#ffffff;dashed=0;verticalLabelPosition=bottom;verticalAlign=top;align=center;html=1;fontSize=12;fontStyle=0;aspect=fixed;shape=mxgraph.aws4.resourceIcon;resIcon=mxgraph.aws4.ec2;" vertex="1" parent="1">
          <mxGeometry x="731.5" y="540" width="65.5" height="65.5" as="geometry" />
        </mxCell>
        <mxCell id="4QRxjfR1u28q5DTtSrSD-27" value="" style="sketch=0;points=[[0,0,0],[0.25,0,0],[0.5,0,0],[0.75,0,0],[1,0,0],[0,1,0],[0.25,1,0],[0.5,1,0],[0.75,1,0],[1,1,0],[0,0.25,0],[0,0.5,0],[0,0.75,0],[1,0.25,0],[1,0.5,0],[1,0.75,0]];outlineConnect=0;fontColor=#232F3E;gradientColor=#F78E04;gradientDirection=north;fillColor=#D05C17;strokeColor=#ffffff;dashed=0;verticalLabelPosition=bottom;verticalAlign=top;align=center;html=1;fontSize=12;fontStyle=0;aspect=fixed;shape=mxgraph.aws4.resourceIcon;resIcon=mxgraph.aws4.ec2;" vertex="1" parent="1">
          <mxGeometry x="608.5" y="540" width="65.5" height="65.5" as="geometry" />
        </mxCell>
        <mxCell id="4QRxjfR1u28q5DTtSrSD-29" value="" style="sketch=0;points=[[0,0,0],[0.25,0,0],[0.5,0,0],[0.75,0,0],[1,0,0],[0,1,0],[0.25,1,0],[0.5,1,0],[0.75,1,0],[1,1,0],[0,0.25,0],[0,0.5,0],[0,0.75,0],[1,0.25,0],[1,0.5,0],[1,0.75,0]];outlineConnect=0;fontColor=#232F3E;gradientColor=#F78E04;gradientDirection=north;fillColor=#D05C17;strokeColor=#ffffff;dashed=0;verticalLabelPosition=bottom;verticalAlign=top;align=center;html=1;fontSize=12;fontStyle=0;aspect=fixed;shape=mxgraph.aws4.resourceIcon;resIcon=mxgraph.aws4.ec2;" vertex="1" parent="1">
          <mxGeometry x="674" y="660" width="65.5" height="65.5" as="geometry" />
        </mxCell>
        <mxCell id="4QRxjfR1u28q5DTtSrSD-32" value="&lt;h3 style=&quot;font-size: 21px;&quot;&gt;Security Group&lt;br style=&quot;font-size: 21px;&quot;&gt;&lt;/h3&gt;" style="text;html=1;strokeColor=none;fillColor=none;align=center;verticalAlign=middle;whiteSpace=wrap;rounded=0;fontSize=21;fontColor=#fc7a2c;" vertex="1" parent="1">
          <mxGeometry x="601.37" y="88" width="174.25" height="30" as="geometry" />
        </mxCell>
        <mxCell id="4QRxjfR1u28q5DTtSrSD-33" value="&lt;h3 style=&quot;font-size: 21px;&quot;&gt;Security Group&lt;br style=&quot;font-size: 21px;&quot;&gt;&lt;/h3&gt;" style="text;html=1;strokeColor=none;fillColor=none;align=center;verticalAlign=middle;whiteSpace=wrap;rounded=0;fontSize=21;fontColor=#fc7a2c;" vertex="1" parent="1">
          <mxGeometry x="608.5" y="480" width="174.25" height="30" as="geometry" />
        </mxCell>
        <mxCell id="4QRxjfR1u28q5DTtSrSD-38" value="&lt;h3 style=&quot;font-size: 21px;&quot;&gt;Security Group&lt;br style=&quot;font-size: 21px;&quot;&gt;&lt;/h3&gt;" style="text;html=1;strokeColor=none;fillColor=none;align=center;verticalAlign=middle;whiteSpace=wrap;rounded=0;fontSize=21;fontColor=#fc7a2c;" vertex="1" parent="1">
          <mxGeometry x="252.87" y="68.12" width="174.25" height="30" as="geometry" />
        </mxCell>
        <mxCell id="4QRxjfR1u28q5DTtSrSD-39" value="&lt;h3&gt;DNS Zones&lt;/h3&gt;" style="text;html=1;strokeColor=none;fillColor=none;align=center;verticalAlign=middle;whiteSpace=wrap;rounded=0;" vertex="1" parent="1">
          <mxGeometry x="300" y="215.5" width="80" height="30" as="geometry" />
        </mxCell>
      </root>
    </mxGraphModel>
  </diagram>
</mxfile>
